<svg width="67" height="67" viewBox="0 0 67 67" fill="none" xmlns="http://www.w3.org/2000/svg">
<path d="M36.5219 59.2797C36.7337 59.8423 37.302 60.1879 37.899 60.1171C38.496 60.0464 38.9677 59.5775 39.0422 58.981C39.838 52.603 45.1754 38.1046 60.0236 31.6413C60.5912 31.3942 60.9076 30.7829 60.7816 30.1768C60.6556 29.5707 60.1217 29.1361 59.5027 29.1358C52.1123 29.1315 46.0591 25.7101 41.4497 21.3316C36.8302 16.9434 33.746 11.6688 32.3369 8.19476C32.1135 7.64402 31.5467 7.31331 30.9573 7.38986C30.3679 7.4664 29.9044 7.93093 29.8291 8.52046C27.552 26.3501 14.8863 34.1461 9.01362 35.8045C8.39879 35.9781 7.99956 36.5707 8.06966 37.2058C8.13975 37.8408 8.65863 38.3321 9.29654 38.3674C15.8397 38.7299 30.5539 43.4276 36.5219 59.2797Z" fill="#B3B3B3"/>
<path d="M27.6814 6.81389C27.7191 6.51917 27.9508 6.28663 28.2455 6.24837C28.54 6.21033 28.8229 6.37599 28.9346 6.65121C30.3742 10.2003 33.5078 15.5561 38.203 20.0162C42.8931 24.4714 49.0994 27.995 56.7058 27.9994C57.0152 27.9996 57.2819 28.2174 57.345 28.5203C57.408 28.8233 57.2503 29.1292 56.9667 29.2529C41.8377 35.8384 36.4109 50.5902 35.5972 57.1111C35.5599 57.4091 35.324 57.6429 35.0257 57.6783C34.7273 57.7137 34.4433 57.5413 34.3374 57.2601C28.249 41.0881 13.2434 36.2972 6.53596 35.9256C6.21718 35.9078 5.95805 35.6622 5.92296 35.3448C5.88792 35.0274 6.08738 34.7314 6.39468 34.6445C12.4662 32.93 25.3647 24.9544 27.6814 6.81389Z" fill="#FC75FF" stroke="black" stroke-width="1.30707" stroke-linejoin="round"/>
<path d="M42.2027 30.841C35.7082 34.8123 33.2599 41.7986 32.5764 45.0401C30.4092 40.8937 24.8496 34.297 19.9173 33.6303C21.8825 32.9722 26.8817 26.9514 29.2287 19.5185C33.4795 27.0207 39.5151 30.1169 42.2027 30.841Z" fill="white" stroke="black" stroke-width="1.30707" stroke-linecap="round" stroke-linejoin="round"/>
</svg>
