<svg width="71" height="61" viewBox="0 0 71 61" fill="none" xmlns="http://www.w3.org/2000/svg">
<path d="M64.6131 39.5705C65.3814 39.4493 65.3818 39.4493 65.3817 39.4489L65.381 39.4477C65.3808 39.4466 65.3804 39.4452 65.3801 39.4434C65.3796 39.4399 65.379 39.4349 65.378 39.4287C65.3759 39.4161 65.3732 39.398 65.3692 39.3747C65.3612 39.328 65.3487 39.2598 65.3326 39.1718C65.3003 38.9957 65.2514 38.739 65.1821 38.4127C65.0437 37.7603 64.8254 36.8272 64.5054 35.6937C63.8656 33.4278 62.8158 30.3511 61.1732 27.1131C57.8935 20.6483 52.1996 13.443 42.6081 10.8729C33.0166 8.30294 24.4829 11.6959 18.4102 15.6548C15.3687 17.6377 12.9212 19.7773 11.2342 21.4197C10.3902 22.2414 9.73467 22.9403 9.28861 23.4361C9.0655 23.684 8.89477 23.8819 8.77875 24.0183C8.72083 24.0863 8.67583 24.1392 8.64558 24.1757C8.63057 24.1938 8.61904 24.2082 8.61099 24.218C8.60702 24.2228 8.60404 24.2269 8.6018 24.2297C8.60069 24.231 8.59957 24.2321 8.5989 24.2329L8.5977 24.2336L9.20252 24.7233M64.6131 39.5705C65.2179 40.0596 65.2179 40.0607 65.2177 40.061L65.2165 40.0617C65.2158 40.0626 65.2146 40.0637 65.2136 40.065C65.2113 40.0678 65.2083 40.0718 65.2044 40.0767C65.1963 40.0866 65.1849 40.1008 65.1698 40.119C65.1395 40.1555 65.0946 40.2082 65.0366 40.2764C64.9206 40.4128 64.7498 40.6107 64.5267 40.8586C64.0806 41.3544 63.4251 42.0533 62.5812 42.8749C60.8942 44.5174 58.4467 46.657 55.4051 48.6399C49.3324 52.5987 40.7989 55.9908 31.2075 53.4208C21.616 50.8507 15.9218 43.6464 12.6422 37.1816C10.9995 33.9435 9.94976 30.8668 9.30998 28.601C8.98993 27.4675 8.77166 26.5344 8.63322 25.882C8.56398 25.5557 8.51507 25.299 8.48278 25.1229C8.46665 25.0349 8.45411 24.9667 8.44616 24.9199C8.4422 24.8967 8.43941 24.8786 8.43735 24.866C8.43633 24.8598 8.4358 24.8548 8.43523 24.8513C8.43495 24.8495 8.43453 24.8481 8.43436 24.847L8.43366 24.8458C8.43359 24.8454 8.43418 24.8444 9.20252 24.7233M64.6131 39.5705L65.2179 40.0601C65.3563 39.889 65.4157 39.6672 65.3814 39.4498L64.6131 39.5705ZM9.20252 24.7233L8.43392 24.8449C8.39964 24.6275 8.45911 24.4057 8.59745 24.2346L9.20252 24.7233Z" fill="#B3B3B3" stroke="#B3B3B3" stroke-width="1.55568" stroke-linejoin="round"/>
<path d="M62.2083 35.4065C62.9766 35.2854 62.977 35.2854 62.9769 35.2849L62.9762 35.2837C62.976 35.2826 62.9756 35.2812 62.9753 35.2794C62.9748 35.2759 62.9742 35.271 62.9732 35.2647C62.9712 35.2522 62.9684 35.234 62.9644 35.2108C62.9565 35.164 62.9439 35.0959 62.9278 35.0079C62.8955 34.8318 62.8466 34.575 62.7773 34.2487C62.6389 33.5964 62.4206 32.6633 62.1006 31.5298C61.4608 29.2639 60.4111 26.1872 58.7684 22.9492C55.4888 16.4843 49.7949 9.27901 40.2034 6.70898C30.6118 4.139 22.0781 7.53195 16.0054 11.4909C12.9639 13.4737 10.5164 15.6134 8.8294 17.2558C7.98546 18.0774 7.32988 18.7764 6.88382 19.2721C6.66072 19.5201 6.48998 19.718 6.37397 19.8543C6.31605 19.9224 6.27105 19.9753 6.24079 20.0117C6.22578 20.0299 6.21425 20.0442 6.20621 20.054C6.20223 20.0589 6.19925 20.063 6.19701 20.0657C6.19591 20.0671 6.19479 20.0682 6.19411 20.069L6.19292 20.0697L6.79774 20.5593M62.2083 35.4065C62.8131 35.8956 62.8132 35.8967 62.8129 35.8971L62.8117 35.8978C62.811 35.8986 62.8099 35.8997 62.8088 35.9011C62.8065 35.9038 62.8036 35.9079 62.7996 35.9128C62.7915 35.9226 62.7801 35.9369 62.765 35.9551C62.7347 35.9916 62.6898 36.0443 62.6318 36.1125C62.5158 36.2488 62.3451 36.4467 62.122 36.6947C61.6759 37.1904 61.0203 37.8894 60.1764 38.711C58.4894 40.3534 56.0419 42.493 53.0003 44.4759C46.9277 48.4348 38.3941 51.8269 28.8027 49.2569C19.2112 46.6868 13.517 39.4825 10.2374 33.0176C8.59472 29.7796 7.54497 26.7029 6.90519 24.437C6.58515 23.3035 6.36688 22.3704 6.22844 21.7181C6.1592 21.3918 6.11028 21.135 6.07799 20.9589C6.06186 20.8709 6.04933 20.8028 6.04137 20.756C6.03741 20.7327 6.03462 20.7146 6.03257 20.7021C6.03154 20.6958 6.03101 20.6909 6.03045 20.6874C6.03016 20.6856 6.02974 20.6842 6.02957 20.6831L6.02888 20.6819C6.02881 20.6814 6.02939 20.6805 6.79774 20.5593M62.2083 35.4065L62.8131 35.8962C62.9515 35.725 63.0109 35.5033 62.9766 35.2859L62.2083 35.4065ZM6.79774 20.5593L6.02913 20.6809C5.99486 20.4636 6.05433 20.2418 6.19266 20.0706L6.79774 20.5593Z" fill="#44E2F8" stroke="black" stroke-width="1.55568" stroke-linejoin="round"/>
<path d="M37.4555 13.5516C44.6242 15.1531 48.9021 22.7721 47.1868 30.4509C45.4713 38.1299 38.3577 43.2039 31.189 41.6024C24.0205 40.0008 19.7423 32.3819 21.4577 24.7031C23.1733 17.0243 30.287 11.9503 37.4555 13.5516Z" fill="white" stroke="black" stroke-width="1.55568" stroke-linecap="round" stroke-linejoin="round"/>
<path d="M36.2654 18.4761C40.8395 19.4981 43.659 24.1294 42.6193 28.7832C41.5795 33.4369 37.0575 36.4272 32.4834 35.4055C27.9093 34.3837 25.0889 29.753 26.1284 25.0992C27.168 20.4452 31.6912 17.4543 36.2654 18.4761Z" fill="#FC75FF" stroke="black" stroke-width="1.55568" stroke-linecap="round" stroke-linejoin="round"/>
<ellipse cx="34.0587" cy="26.1995" rx="3.81325" ry="3.92484" transform="rotate(12.5931 34.0587 26.1995)" fill="black"/>
</svg>
